<?xml version="1.0" standalone="no"?>
<!DOCTYPE svg PUBLIC "-//W3C//DTD SVG 20010904//EN"
 "http://www.w3.org/TR/2001/REC-SVG-20010904/DTD/svg10.dtd">
<svg version="1.0" xmlns="http://www.w3.org/2000/svg"
 width="24" height="24" viewBox="0 0 3333.000000 3333.000000"
 preserveAspectRatio="xMidYMid meet">

<g transform="translate(0.000000,3333.000000) scale(0.100000,-0.100000)"
fill="white" stroke="none">
<path d="M6440 33319 c-1651 -103 -3192 -784 -4359 -1924 -385 -376 -657 -704
-946 -1140 -670 -1009 -1049 -2149 -1125 -3385 -14 -229 -14 -20181 0 -20410
111 -1804 883 -3432 2206 -4654 534 -494 1192 -926 1857 -1220 756 -334 1542
-524 2387 -576 229 -14 20181 -14 20410 0 1729 107 3293 817 4496 2041 1173
1195 1850 2721 1954 4409 14 229 14 20181 0 20410 -111 1804 -883 3432 -2206
4654 -534 494 -1192 926 -1857 1220 -756 334 -1542 524 -2387 576 -198 12
-20236 11 -20430 -1z m11145 -4568 c303 -16 818 -65 1050 -101 39 -6 102 -15
140 -19 113 -13 696 -123 881 -166 387 -91 522 -127 874 -236 488 -150 1012
-348 1376 -519 45 -21 92 -41 104 -45 31 -10 659 -324 690 -345 14 -9 59 -35
100 -57 41 -22 99 -54 128 -71 29 -18 55 -32 57 -32 2 0 90 -52 197 -116 608
-365 1102 -717 1644 -1168 128 -107 146 -123 365 -321 182 -164 649 -632 794
-794 61 -68 133 -149 160 -180 60 -66 136 -155 185 -215 340 -418 546 -695
787 -1056 181 -272 416 -654 511 -830 20 -36 45 -81 57 -100 11 -19 38 -69 60
-110 21 -41 57 -109 80 -150 46 -84 195 -385 195 -394 0 -3 24 -54 53 -113 29
-59 60 -126 69 -148 9 -22 27 -65 41 -95 14 -30 42 -95 62 -145 21 -49 43
-103 50 -120 144 -323 431 -1197 535 -1630 40 -169 65 -275 85 -370 37 -172
43 -202 65 -330 12 -66 28 -154 37 -195 8 -41 19 -106 23 -145 5 -38 14 -101
20 -140 5 -38 15 -106 20 -150 6 -44 15 -114 21 -155 5 -41 14 -122 19 -180 5
-58 14 -152 20 -210 30 -326 43 -657 44 -1135 0 -560 -15 -889 -64 -1365 -9
-88 -13 -129 -40 -352 -5 -46 -14 -110 -19 -143 -5 -33 -17 -109 -26 -170 -25
-164 -87 -488 -135 -705 -4 -19 -15 -71 -25 -115 -25 -120 -82 -339 -170 -655
-39 -138 -146 -468 -205 -629 -144 -394 -172 -466 -275 -701 -42 -96 -81 -187
-87 -203 -5 -15 -41 -91 -79 -168 -38 -77 -69 -143 -69 -145 0 -10 -83 -178
-100 -204 -9 -14 -51 -90 -92 -170 -41 -80 -92 -174 -112 -208 -20 -35 -36
-65 -36 -67 0 -2 -18 -33 -40 -69 -22 -36 -40 -68 -40 -72 0 -3 -13 -25 -30
-49 -16 -24 -30 -46 -30 -50 0 -4 -13 -26 -30 -50 -16 -24 -30 -46 -30 -48 0
-16 -366 -575 -499 -762 -172 -242 -470 -627 -684 -882 -105 -125 -156 -183
-364 -415 -132 -147 -684 -693 -837 -828 -66 -58 -145 -128 -175 -155 -68 -62
-137 -119 -357 -296 -483 -388 -1109 -808 -1609 -1080 -33 -17 -71 -40 -85
-49 -31 -21 -731 -371 -785 -392 -22 -9 -69 -30 -105 -46 -36 -17 -114 -51
-175 -76 -60 -26 -119 -51 -130 -56 -74 -35 -463 -182 -720 -271 -147 -52
-185 -61 -279 -69 -190 -16 -326 7 -439 74 -98 57 -209 210 -251 345 -20 65
-20 92 -26 2036 -5 1416 -10 1988 -18 2035 -6 36 -16 108 -22 160 -7 52 -16
113 -20 135 -5 22 -16 81 -26 130 -27 150 -111 420 -172 555 -134 300 -254
480 -455 687 -70 71 -105 114 -96 117 8 2 59 9 114 15 132 15 226 28 360 47
227 32 217 31 510 84 193 35 557 120 750 175 164 47 467 151 540 185 11 5 63
27 115 48 152 62 213 91 430 199 188 94 253 128 350 185 19 11 55 32 80 46 62
34 289 183 375 245 444 324 783 677 1052 1097 103 160 136 218 236 420 93 187
105 213 194 435 147 366 289 857 353 1220 5 28 14 75 20 105 28 145 66 436 80
620 5 63 15 185 22 270 16 204 17 1011 0 1185 -32 346 -82 612 -177 938 -69
239 -187 541 -286 732 -72 139 -133 253 -150 277 -11 14 -19 29 -19 33 0 8
-171 267 -246 371 -61 86 -128 168 -271 335 -94 109 -95 112 -72 164 18 39 92
261 110 330 55 203 90 384 114 590 17 140 20 658 5 805 -19 184 -65 455 -112
650 -71 300 -236 799 -274 831 -24 20 -123 39 -241 46 -255 14 -601 -57 -1008
-207 -211 -78 -437 -170 -597 -244 -31 -14 -59 -26 -63 -26 -9 0 -433 -211
-510 -253 -38 -22 -95 -53 -125 -70 -82 -45 -210 -122 -350 -211 -230 -145
-385 -242 -431 -270 l-47 -27 -198 51 c-269 69 -563 134 -764 170 -30 5 -102
18 -160 29 -58 10 -141 24 -185 31 -44 6 -107 15 -140 20 -33 5 -98 14 -145
20 -47 6 -103 13 -125 16 -124 16 -330 34 -620 55 -223 15 -1090 22 -1310 10
-424 -24 -1010 -83 -1195 -120 -25 -5 -79 -14 -120 -21 -154 -23 -469 -84
-620 -120 -47 -11 -106 -24 -131 -30 -60 -12 -236 -56 -319 -80 -129 -37 -114
-40 -250 50 -67 45 -159 104 -204 132 -177 111 -242 152 -276 171 -19 10 -47
28 -62 38 -14 11 -28 19 -31 19 -3 0 -34 17 -68 38 -60 36 -551 282 -563 282
-3 0 -40 16 -82 35 -41 19 -78 35 -80 35 -3 0 -26 10 -52 21 -155 71 -576 237
-732 289 -280 94 -458 134 -705 160 -109 11 -193 8 -310 -11 -103 -18 -100
-14 -185 -249 -54 -153 -148 -478 -179 -620 -11 -52 -27 -128 -36 -168 -54
-253 -89 -631 -81 -901 13 -491 69 -801 223 -1230 l44 -123 -23 -28 c-13 -16
-64 -76 -115 -134 -169 -192 -357 -453 -483 -671 -9 -16 -31 -52 -47 -80 -58
-98 -212 -423 -266 -560 -109 -280 -193 -575 -246 -862 -51 -281 -64 -404 -82
-755 -16 -321 18 -1076 60 -1363 5 -33 19 -127 31 -210 85 -579 236 -1128 451
-1637 190 -452 425 -849 687 -1161 85 -101 402 -420 478 -481 28 -23 78 -63
111 -91 33 -27 89 -71 124 -96 75 -54 366 -249 373 -249 2 0 34 -18 70 -40 36
-22 68 -40 71 -40 3 0 24 -12 48 -27 44 -28 511 -263 522 -263 4 0 37 -14 73
-31 230 -107 643 -249 955 -328 395 -101 906 -191 1417 -252 58 -6 110 -15
117 -18 8 -4 -26 -46 -88 -111 -367 -383 -577 -854 -674 -1512 -4 -27 -12 -39
-28 -44 -12 -4 -49 -19 -82 -34 -285 -131 -681 -225 -1102 -260 -161 -13 -601
-13 -677 1 -230 41 -479 130 -646 230 -25 15 -64 38 -87 51 -201 111 -509 392
-687 628 -75 99 -216 305 -216 316 0 3 -8 18 -19 32 -10 15 -31 50 -46 77
-137 247 -438 585 -683 765 -306 225 -692 420 -892 451 -30 4 -100 15 -154 24
-187 29 -422 18 -564 -25 -51 -16 -120 -73 -137 -114 -51 -120 244 -464 525
-612 137 -72 237 -149 396 -308 177 -177 300 -333 485 -614 96 -144 262 -451
297 -547 6 -16 31 -77 57 -135 26 -58 73 -172 106 -255 74 -185 127 -285 233
-440 152 -223 427 -471 697 -630 73 -42 255 -133 311 -155 189 -74 306 -110
457 -140 390 -76 710 -109 1136 -116 374 -7 685 10 880 46 33 6 85 15 115 20
30 5 91 15 135 24 44 8 96 16 115 18 l35 3 8 -1180 c6 -814 5 -1200 -2 -1246
-20 -127 -83 -241 -188 -340 -94 -89 -177 -125 -322 -140 -150 -14 -289 2
-434 52 -349 119 -794 291 -997 386 -30 14 -73 32 -95 41 -22 9 -80 35 -128
59 -48 24 -91 43 -95 43 -10 0 -472 231 -502 250 -14 10 -63 37 -110 60 -47
24 -96 51 -110 60 -14 9 -50 30 -80 47 -30 17 -79 44 -108 62 -29 17 -55 31
-58 31 -3 0 -25 14 -49 30 -24 17 -46 30 -48 30 -9 0 -394 244 -502 318 -278
189 -705 505 -837 617 -19 17 -70 59 -113 95 -77 64 -152 128 -356 305 -131
113 -805 786 -924 923 -50 57 -121 138 -158 180 -125 141 -462 559 -583 722
-225 304 -281 384 -451 640 -141 214 -199 302 -222 343 -10 18 -55 92 -100
166 -44 73 -81 135 -81 137 0 3 -18 34 -40 70 -22 36 -40 68 -40 70 0 2 -23
43 -51 91 -54 93 -398 777 -417 828 -6 17 -45 109 -87 205 -275 632 -489 1283
-655 1989 -37 161 -82 372 -101 479 -10 56 -23 128 -40 220 -5 31 -14 84 -19
117 -5 33 -14 89 -20 125 -6 36 -15 101 -20 145 -5 44 -14 116 -20 160 -54
410 -100 1144 -100 1610 0 380 45 1196 79 1445 24 174 32 238 37 285 5 49 35
245 54 355 45 260 53 305 116 605 48 233 155 639 249 953 98 322 327 950 420
1150 14 29 25 55 25 58 0 4 16 40 35 81 19 41 35 77 35 80 0 3 32 70 70 150
39 80 70 148 70 151 0 9 143 296 160 322 10 14 41 72 70 130 30 58 63 121 75
140 12 19 37 64 57 100 19 36 58 103 85 150 28 47 61 103 74 126 108 186 441
698 579 889 195 270 409 545 590 760 69 81 141 167 160 190 200 243 912 955
1155 1155 23 19 109 91 190 160 180 152 267 222 495 393 259 196 329 244 627
442 260 172 337 221 427 274 23 13 53 32 68 42 14 11 28 19 31 19 3 0 58 32
123 70 64 39 118 70 120 70 2 0 41 22 87 48 46 27 131 72 188 102 57 29 115
60 129 70 26 17 313 160 322 160 3 0 71 32 151 70 80 39 147 70 150 70 3 0 39
16 80 35 41 19 77 35 81 35 3 0 29 11 58 25 200 93 828 322 1150 420 299 90
717 200 928 244 294 61 375 77 630 121 110 19 306 49 355 54 47 5 111 13 285
37 143 20 685 57 1000 69 255 9 885 4 1155 -9z"/>
</g>
</svg>
